HIERARCHY
ROOT Hips
{
    OFFSET 0.000 93.594 0.000
    CHANNELS 6 Xposition Yposition Zposition Yrotation Xrotation Zrotation
    JOINT RightHip
    {
        OFFSET -9.500 -1.594 0.000
        CHANNELS 3 Yrotation Xrotation Zrotation
        JOINT RightKnee
        {
            OFFSET 0.000 -42.000 0.000
            CHANNELS 3 Yrotation Xrotation Zrotation
            JOINT RightAnkle
            {
                OFFSET 0.000 -42.000 0.000
                CHANNELS 3 Yrotation Xrotation Zrotation
                End Site
                {
                    OFFSET 0.000 -8.000 17.500
                }
            }
        }
    }
    JOINT LeftHip
    {
        OFFSET 9.500 -1.594 0.000
        CHANNELS 3 Yrotation Xrotation Zrotation
        JOINT LeftKnee
        {
            OFFSET 0.000 -42.000 0.000
            CHANNELS 3 Yrotation Xrotation Zrotation
            JOINT LeftAnkle
            {
                OFFSET 0.000 -42.000 0.000
                CHANNELS 3 Yrotation Xrotation Zrotation
                End Site
                {
                    OFFSET 0.000 -8.000 17.500
                }
            }
        }
    }
    JOINT Chest
    {
        OFFSET 0.000 14.348 0.000
        CHANNELS 3 Yrotation Xrotation Zrotation
        JOINT Chest2
        {
            OFFSET 0.000 9.746 0.000
            CHANNELS 3 Yrotation Xrotation Zrotation
            JOINT Chest3
            {
                OFFSET 0.000 10.149 0.000
                CHANNELS 3 Yrotation Xrotation Zrotation
                JOINT Chest4
                {
                    OFFSET 0.000 9.746 0.000
                    CHANNELS 3 Yrotation Xrotation Zrotation
                    JOINT Neck
                    {
                        OFFSET 0.000 10.417 0.000
                        CHANNELS 3 Yrotation Xrotation Zrotation
                        JOINT Head
                        {
                            OFFSET 0.000 9.000 0.000
                            CHANNELS 3 Yrotation Xrotation Zrotation
                            End Site
                            {
                                OFFSET 0.000 16.000 0.000
                            }
                        }
                    }
                    JOINT RightCollar
                    {
                        OFFSET -3.200 6.945 0.000
                        CHANNELS 3 Yrotation Xrotation Zrotation
                        JOINT RightShoulder
                        {
                            OFFSET -12.800 0.000 0.000
                            CHANNELS 3 Yrotation Xrotation Zrotation
                            JOINT RightElbow
                            {
OFFSET -0 -27 0.000
						CHANNELS 3 Xrotation Yrotation Zrotation
                                JOINT RightWrist
                                {
OFFSET -0 -26 0.000
						CHANNELS 3 Xrotation Yrotation Zrotation
                                    JOINT RightFinger0
                                    {
OFFSET -0.196 -2.56 3.210
						CHANNELS 3 Xrotation Yrotation Zrotation
                                        JOINT RightFinger01
                                        {
OFFSET -0 -3.788 0.000
						CHANNELS 3 Xrotation Yrotation Zrotation
                                            JOINT RightFinger0Nub
                                            {
OFFSET -0 -2.631 0.000
						CHANNELS 3 Xrotation Yrotation Zrotation
                                                End Site
                                                {
OFFSET 0 -2.256 0
                                                }
                                            }
                                        }
                                    }
                                    JOINT RightFinger1
                                    {
OFFSET -0.523 -3.316 2.035
						CHANNELS 3 Xrotation Yrotation Zrotation
                                        JOINT RightFinger11
                                        {
OFFSET 0.094 -5.366 1.028
						CHANNELS 3 Xrotation Yrotation Zrotation
                                            JOINT RightFinger12
                                            {
OFFSET -0 -3.723 0.000
						CHANNELS 3 Xrotation Yrotation Zrotation
                                                JOINT RightFinger1Nub
                                                {
OFFSET -0 -2.111 0.000
						CHANNELS 3 Xrotation Yrotation Zrotation
                                                    End Site
                                                    {
OFFSET 0 -1.857 0
                                                    }
                                                }
                                            }
                                        }
                                    }
                                    JOINT RightFinger2
                                    {
OFFSET -0.532 -3.479 0.778
						CHANNELS 3 Xrotation Yrotation Zrotation
                                        JOINT RightFinger21
                                        {
OFFSET 0.086 -5.322 0.323
						CHANNELS 3 Xrotation Yrotation Zrotation
                                            JOINT RightFinger22
                                            {
OFFSET -0 -4.062 0.000
						CHANNELS 3 Xrotation Yrotation Zrotation
                                                JOINT RightFinger2Nub
                                                {
OFFSET -0 -2.547 0.000
						CHANNELS 3 Xrotation Yrotation Zrotation
                                                    End Site
                                                    {
OFFSET 0 -2.031 0
                                                    }
                                                }
                                            }
                                        }
                                    }
                                    JOINT RightFinger3
                                    {
OFFSET -0.553 -3.461 -0.133
						CHANNELS 3 Xrotation Yrotation Zrotation
                                        JOINT RightFinger31
                                        {
OFFSET 0.023 -4.767 -0.493
						CHANNELS 3 Xrotation Yrotation Zrotation
                                            JOINT RightFinger32
                                            {
OFFSET -0 -3.541 0.000
						CHANNELS 3 Xrotation Yrotation Zrotation
                                                JOINT RightFinger3Nub
                                                {
OFFSET -0 -2.456 0.000
						CHANNELS 3 Xrotation Yrotation Zrotation
                                                    End Site
                                                    {
OFFSET 0 -1.91 0
                                                    }
                                                }
                                            }
                                        }
                                    }
                                    JOINT RightFinger4
                                    {
OFFSET -0.483 -3.251 -1.236
						CHANNELS 3 Xrotation Yrotation Zrotation
                                        JOINT RightFinger41
                                        {
OFFSET 0.023 -4.259 -1.122
						CHANNELS 3 Xrotation Yrotation Zrotation
                                            JOINT RightFinger42
                                            {
OFFSET -0 -2.835 0.000
						CHANNELS 3 Xrotation Yrotation Zrotation
                                                JOINT RightFinger4Nub
                                                {
OFFSET -0 -1.792 0.000
						CHANNELS 3 Xrotation Yrotation Zrotation
                                                    End Site
                                                    {
OFFSET 0 -1.692 0
                                                    }
                                                }
                                            }
                                        }
                                    }
                                }
                            }
                        }
                    }
                    JOINT LeftCollar
                    {
                        OFFSET 3.200 6.945 0.000
                        CHANNELS 3 Yrotation Xrotation Zrotation
                        JOINT LeftShoulder
                        {
                            OFFSET 12.800 0.000 0.000
                            CHANNELS 3 Yrotation Xrotation Zrotation
                            JOINT LeftElbow
                            {
OFFSET -0 -27 0.000
						CHANNELS 3 Xrotation Yrotation Zrotation
                                JOINT LeftWrist
                                {
OFFSET -0 -26 0.000
						CHANNELS 3 Xrotation Yrotation Zrotation
                                    JOINT LeftFinger0
                                    {
OFFSET -0.196 -2.56 3.210
						CHANNELS 3 Xrotation Yrotation Zrotation
                                        JOINT LeftFinger01
                                        {
OFFSET -0 -3.788 0.000
						CHANNELS 3 Xrotation Yrotation Zrotation
                                            JOINT LeftFinger0Nub
                                            {
OFFSET -0 -2.631 0.000
						CHANNELS 3 Xrotation Yrotation Zrotation
                                                End Site
                                                {
OFFSET 0 -2.256 0
                                                }
                                            }
                                        }
                                    }
                                    JOINT LeftFinger1
                                    {
OFFSET -0.523 -3.316 2.035
						CHANNELS 3 Xrotation Yrotation Zrotation
                                        JOINT LeftFinger11
                                        {
OFFSET 0.094 -5.366 1.028
						CHANNELS 3 Xrotation Yrotation Zrotation
                                            JOINT LeftFinger12
                                            {
OFFSET -0 -3.723 0.000
						CHANNELS 3 Xrotation Yrotation Zrotation
                                                JOINT LeftFinger1Nub
                                                {
OFFSET -0 -2.111 0.000
						CHANNELS 3 Xrotation Yrotation Zrotation
                                                    End Site
                                                    {
OFFSET 0 -1.857 0
                                                    }
                                                }
                                            }
                                        }
                                    }
                                    JOINT LeftFinger2
                                    {
OFFSET -0.532 -3.479 0.778
						CHANNELS 3 Xrotation Yrotation Zrotation
                                        JOINT LeftFinger21
                                        {
OFFSET 0.086 -5.322 0.323
						CHANNELS 3 Xrotation Yrotation Zrotation
                                            JOINT LeftFinger22
                                            {
OFFSET -0 -4.062 0.000
						CHANNELS 3 Xrotation Yrotation Zrotation
                                                JOINT LeftFinger2Nub
                                                {
OFFSET -0 -2.547 0.000
						CHANNELS 3 Xrotation Yrotation Zrotation
                                                    End Site
                                                    {
OFFSET 0 -2.031 0
                                                    }
                                                }
                                            }
                                        }
                                    }
                                    JOINT LeftFinger3
                                    {
OFFSET -0.553 -3.461 -0.133
						CHANNELS 3 Xrotation Yrotation Zrotation
                                        JOINT LeftFinger31
                                        {
OFFSET 0.023 -4.767 -0.493
						CHANNELS 3 Xrotation Yrotation Zrotation
                                            JOINT LeftFinger32
                                            {
OFFSET -0 -3.541 0.000
						CHANNELS 3 Xrotation Yrotation Zrotation
                                                JOINT LeftFinger3Nub
                                                {
OFFSET -0 -2.456 0.000
						CHANNELS 3 Xrotation Yrotation Zrotation
                                                    End Site
                                                    {
OFFSET 0 -1.91 0
                                                    }
                                                }
                                            }
                                        }
                                    }
                                    JOINT LeftFinger4
                                    {
OFFSET -0.483 -3.251 -1.236
						CHANNELS 3 Xrotation Yrotation Zrotation
                                        JOINT LeftFinger41
                                        {
OFFSET 0.023 -4.259 -1.122
						CHANNELS 3 Xrotation Yrotation Zrotation
                                            JOINT LeftFinger42
                                            {
OFFSET -0 -2.835 0.000
						CHANNELS 3 Xrotation Yrotation Zrotation
                                                JOINT LeftFinger4Nub
                                                {
OFFSET -0 -1.792 0.000
						CHANNELS 3 Xrotation Yrotation Zrotation
                                                    End Site
                                                    {
OFFSET 0 -1.692 0
                                                    }
                                                }
                                            }
                                        }
                                    }
                                }
                            }
                        }
                    }
                }
            }
        }
    }
}
MOTION

Frames: 12
Frame Time: 0.017
-217.91 91.93 77.45 96.56 2.48 -4.66 -14.30 -8.06 -3.26 -0.00 21.63 0.00 -37.50 -6.74 13.58 -20.48 -19.62 15.56 -0.00 28.68 -0.00 2.47 -9.82 -10.26 -13.69 -4.35 3.44 -3.46 -0.91 0.74 -5.68 -1.27 1.26 0.68 2.85 -0.59 -3.21 48.87 -8.46 -4.71 37.34 -12.94 8.91 -1.65 -2.91 -6.74 -5.26 -18.48 -60.24 -16.09 63.77 -21.63 11.97 -1.72 -46.95 -0 26.45 16.64 -0 -3.36 -3.61 -0 0.00 0 -0 0.00 -15 -0 11.51 0 -0 12.54 0 -0 6.27 0 -0 0.00 0 -0 11.72 0 -0 11.72 0 -0 11.72 0 -0 0.00 15 -0 28.51 0 -0 28.51 0 -0 28.51 0 -0 0.00 25 -0 30.22 0 -0 30.22 0 -0 30.22 -13.78 -0.11 1.07 20.98 -12.30 15.33 20.14 46.6 -98.89 -11.88 38.33 7.84 -22.55 0 -37.05 -35.05 0 7.17 34.66 0 0.00 0.00 0 0.00 -15.00 0 -2.18 0.00 0 -13.22 0.00 0 -6.61 0.00 0 0.00 0.00 0 -17.40 0.00 0 -17.40 0.00 0 -17.40 0.00 0 0.00 15.00 0 -30.00 0.00 0 -30.00 0.00 0 -30.00 0.00 0 0.00 25.00 0 -20.14 0.00 0 -20.14 0.00 0 -20.14 
-217.86 91.86 77.40 96.61 2.48 -4.65 -14.30 -8.20 -3.31 0.00 21.99 0.00 -37.53 -6.90 13.75 -20.51 -19.88 15.55 0.00 29.23 -0.00 2.37 -10.15 -10.23 -13.66 -4.32 3.44 -3.45 -0.90 0.74 -5.66 -1.26 1.26 0.67 2.85 -0.59 -3.20 48.88 -8.41 -4.75 37.30 -12.90 8.90 -1.67 -2.93 -6.66 -5.30 -18.39 -60.36 -16.08 63.68 -21.58 12.02 -1.72 -46.94 -0 26.36 16.66 -0 -3.46 -3.64 -0 0.00 0 -0 0.00 -15 -0 11.60 0 -0 12.57 0 -0 6.29 0 -0 0.00 0 -0 11.72 0 -0 11.72 0 -0 11.72 0 -0 0.00 15 -0 28.49 0 -0 28.49 0 -0 28.49 0 -0 0.00 25 -0 30.18 0 -0 30.18 0 -0 30.18 -13.77 -0.11 1.08 20.92 -12.31 15.29 20.18 46.66 -98.95 -11.92 38.36 7.85 -22.56 0 -37.06 -35.07 0 7.15 34.69 0 0.00 0.00 0 0.00 -15.00 0 -2.22 0.00 0 -13.27 0.00 0 -6.64 0.00 0 0.00 0.00 0 -17.47 0.00 0 -17.47 0.00 0 -17.47 0.00 0 0.00 15.00 0 -30.10 0.00 0 -30.10 0.00 0 -30.10 0.00 0 0.00 25.00 0 -20.15 0.00 0 -20.15 0.00 0 -20.15 
-217.85 91.80 77.37 96.61 2.48 -4.65 -14.27 -8.42 -3.34 -0.00 22.46 -0.00 -37.56 -7.06 13.93 -20.08 -20.24 15.51 -0.00 29.69 -0.00 1.87 -10.37 -10.10 -13.66 -2.47 3.04 -3.44 -0.50 0.69 -5.65 -0.65 1.16 0.66 2.83 -0.59 -3.02 46.96 -8.12 -3.82 36.43 -12.36 10.87 -0.82 -3.23 -5.16 -5.74 -18 -68.95 -8.92 60.87 -19.82 11.92 -2.28 -46.48 -0 26.38 17.58 -0 -3.45 -3.05 -0 0.00 0 -0 0.00 -15 -0 11.77 0 -0 15.53 0 -0 7.76 0 -0 0.00 0 -0 10.28 0 -0 10.28 0 -0 10.28 0 -0 0.00 15 -0 27.88 0 -0 27.88 0 -0 27.88 0 -0 0.00 25 -0 30.14 0 -0 30.14 0 -0 30.14 -12.29 0.95 1.32 25.76 -10.90 12.26 15.97 46.31 -93.88 -9.12 35.48 9.48 -21.79 0 -34.93 -33.54 0 9.28 34.77 0 0.00 0.00 0 0.00 -15.00 0 -1.96 0.00 0 -19.89 0.00 0 -9.95 0.00 0 0.00 0.00 0 -15.46 0.00 0 -15.46 0.00 0 -15.46 0.00 0 0.00 15.00 0 -26.74 0.00 0 -26.74 0.00 0 -26.74 0.00 0 0.00 25.00 0 -14.82 0.00 0 -14.82 0.00 0 -14.82 
-217.84 91.75 77.33 96.61 2.48 -4.65 -14.24 -8.61 -3.37 -0.00 22.85 0.00 -37.59 -7.20 14.08 -20.13 -20.41 15.52 -0.00 30.04 -0.00 1.87 -10.54 -10.10 -13.67 -2.48 3.05 -3.45 -0.50 0.69 -5.65 -0.65 1.16 0.66 2.83 -0.59 -3.02 46.97 -8.13 -3.83 36.44 -12.38 10.83 -0.84 -3.21 -5.59 -5.55 -18.3 -68.6 -9.27 61.31 -20.04 11.78 -2.17 -46.51 -0 26.41 17.52 -0 -3.42 -3 -0 0.00 0 -0 0.00 -15 -0 11.62 0 -0 15.08 0 -0 7.54 0 -0 0.00 0 -0 10.30 0 -0 10.30 0 -0 10.30 0 -0 0.00 15 -0 27.89 0 -0 27.89 0 -0 27.89 0 -0 0.00 25 -0 30.18 0 -0 30.18 0 -0 30.18 -12.35 0.95 1.33 25.76 -10.93 12.29 16.13 46.27 -94.05 -9.23 35.49 9.39 -21.87 0 -35.05 -33.69 0 9.17 34.67 0 0.00 0.00 0 0.00 -15.00 0 -1.27 0.00 0 -20.32 0.00 0 -10.16 0.00 0 0.00 0.00 0 -15.12 0.00 0 -15.12 0.00 0 -15.12 0.00 0 0.00 15.00 0 -26.60 0.00 0 -26.60 0.00 0 -26.60 0.00 0 0.00 25.00 0 -15.27 0.00 0 -15.27 0.00 0 -15.27 
-217.80 91.72 77.32 96.82 1.46 -4.85 -14.13 -7.44 -3.43 -0.00 22.75 -0.00 -37.84 -7.17 14.14 -20.01 -19.58 15.36 0.00 30.40 0.00 1.55 -10.81 -10.20 -13.76 -1.83 2.98 -3.47 -0.36 0.69 -5.68 -0.43 1.16 0.66 2.84 -0.59 -3.03 46.99 -8.13 -3.85 36.45 -12.39 10.77 -0.87 -3.20 -6.76 -5.08 -18.98 -68.52 -9.85 62.56 -20.26 11.65 -2.09 -46.55 -0 26.41 17.44 -0 -3.41 -2.54 -0 0.00 0 -0 0.00 -15 -0 11.56 0 -0 14.68 0 -0 7.34 0 -0 0.00 0 -0 10.30 0 -0 10.30 0 -0 10.30 0 -0 0.00 15 -0 27.92 0 -0 27.92 0 -0 27.92 0 -0 0.00 25 -0 30.26 0 -0 30.26 0 -0 30.26 -12.42 0.94 1.34 25.83 -10.90 12.27 16.26 46.14 -94.25 -9.12 35.56 9.05 -21.96 0 -35.16 -33.88 0 9.05 34.59 0 0.00 0.00 0 0.00 -15.00 0 -0.96 0.00 0 -13.35 0.00 0 -6.68 0.00 0 0.00 0.00 0 -15.01 0.00 0 -15.01 0.00 0 -15.01 0.00 0 0.00 15.00 0 -26.82 0.00 0 -26.82 0.00 0 -26.82 0.00 0 0.00 25.00 0 -15.97 0.00 0 -15.97 0.00 0 -15.97 
-217.78 91.70 77.31 96.84 1.50 -4.87 -14.13 -7.51 -3.41 0.00 22.88 0.00 -37.87 -7.23 14.20 -20.06 -19.68 15.39 0.00 30.57 0.00 1.58 -10.89 -10.20 -13.77 -1.85 3.01 -3.47 -0.36 0.70 -5.68 -0.43 1.17 0.66 2.84 -0.59 -3.03 47.00 -8.13 -3.88 36.44 -12.40 10.69 -0.92 -3.18 -7.06 -4.94 -19.22 -67.88 -10.24 62.95 -20.49 11.54 -1.99 -46.6 -0 26.41 17.33 -0 -3.41 -2.01 -0 0.00 0 -0 0.00 -15 -0 11.46 0 -0 14.34 0 -0 7.17 0 -0 0.00 0 -0 10.31 0 -0 10.31 0 -0 10.31 0 -0 0.00 15 -0 27.95 0 -0 27.95 0 -0 27.95 0 -0 0.00 25 -0 30.33 0 -0 30.33 0 -0 30.33 -12.48 0.93 1.37 25.89 -10.86 12.23 16.51 45.98 -94.53 -9.01 35.73 8.62 -22.04 0 -35.31 -34.03 0 8.91 34.52 0 0.00 0.00 0 0.00 -15.00 0 -0.63 0.00 0 -12.80 0.00 0 -6.40 0.00 0 0.00 0.00 0 -15.02 0.00 0 -15.02 0.00 0 -15.02 0.00 0 0.00 15.00 0 -27.07 0.00 0 -27.07 0.00 0 -27.07 0.00 0 0.00 25.00 0 -16.79 0.00 0 -16.79 0.00 0 -16.79 
-217.76 91.69 77.30 96.87 1.53 -4.89 -14.13 -7.57 -3.39 -0.00 22.99 0.00 -37.90 -7.29 14.26 -20.12 -19.75 15.43 -0.00 30.69 -0.00 1.58 -10.94 -10.19 -13.80 -1.87 3.05 -3.48 -0.36 0.71 -5.70 -0.44 1.18 0.66 2.84 -0.59 -3.03 46.99 -8.14 -3.90 36.44 -12.43 10.64 -0.98 -3.18 -7.29 -4.83 -19.43 -67.14 -10.64 63.34 -20.73 11.46 -1.92 -46.65 -0 26.41 17.23 -0 -3.41 -1.83 -0 0.00 0 -0 0.00 -15 -0 11.29 0 -0 13.98 0 -0 6.99 0 -0 0.00 0 -0 10.68 0 -0 10.68 0 -0 10.68 0 -0 0.00 15 -0 28.00 0 -0 28.00 0 -0 28.00 0 -0 0.00 25 -0 30.38 0 -0 30.38 0 -0 30.38 -12.57 0.90 1.38 25.84 -10.90 12.24 16.96 45.89 -94.93 -9.01 36.02 8.32 -22.08 0 -35.47 -34.11 0 8.75 34.48 0 0.00 0.00 0 0.00 -15.00 0 -0.25 0.00 0 -12.39 0.00 0 -6.20 0.00 0 0.00 0.00 0 -15.02 0.00 0 -15.02 0.00 0 -15.02 0.00 0 0.00 15.00 0 -27.40 0.00 0 -27.40 0.00 0 -27.40 0.00 0 0.00 25.00 0 -17.25 0.00 0 -17.25 0.00 0 -17.25 
-217.74 91.68 77.31 96.87 1.56 -4.91 -14.12 -7.62 -3.36 0.00 23.07 0.00 -37.95 -7.32 14.30 -20.13 -19.81 15.47 0.00 30.77 0.00 1.55 -10.99 -10.19 -13.82 -1.87 3.08 -3.48 -0.36 0.72 -5.71 -0.43 1.19 0.66 2.84 -0.59 -3.04 46.97 -8.16 -3.91 36.44 -12.46 10.59 -1.06 -3.16 -7.49 -4.75 -19.66 -66.45 -11.05 63.69 -20.95 11.36 -1.88 -46.71 -0 26.42 17.12 -0 -3.40 -1.75 -0 0.00 0 -0 0.00 -15 -0 11.08 0 -0 13.61 0 -0 6.80 0 -0 0.00 0 -0 11.04 0 -0 11.04 0 -0 11.04 0 -0 0.00 15 -0 28.04 0 -0 28.04 0 -0 28.04 0 -0 0.00 25 -0 30.44 0 -0 30.44 0 -0 30.44 -12.64 0.87 1.39 25.74 -10.97 12.28 17.43 45.83 -95.36 -9.06 36.32 8.08 -22.13 0 -35.59 -34.22 0 8.63 34.47 0 0.00 0.00 0 0.00 -15.00 0 0.02 0.00 0 -12.37 0.00 0 -6.18 0.00 0 0.00 0.00 0 -15.13 0.00 0 -15.13 0.00 0 -15.13 0.00 0 0.00 15.00 0 -27.68 0.00 0 -27.68 0.00 0 -27.68 0.00 0 0.00 25.00 0 -17.62 0.00 0 -17.62 0.00 0 -17.62 
-217.73 91.68 77.32 96.86 1.60 -4.93 -14.09 -7.67 -3.32 0.00 23.10 -0.00 -37.98 -7.34 14.31 -20.13 -19.87 15.52 0.00 30.83 0.00 1.55 -11.01 -10.19 -13.83 -1.88 3.12 -3.49 -0.37 0.73 -5.71 -0.44 1.21 0.66 2.84 -0.59 -3.05 46.95 -8.18 -3.93 36.44 -12.49 10.51 -1.13 -3.16 -7.66 -4.68 -19.87 -65.8 -11.44 64.01 -21.05 12.01 -1.48 -46.85 -0 26.10 16.84 -0 -3.72 -2.7 -0 0.00 0 -0 0.00 -15 -0 10.46 0 -0 13.21 0 -0 6.61 0 -0 0.00 0 -0 10.71 0 -0 10.71 0 -0 10.71 0 -0 0.00 15 -0 27.98 0 -0 27.98 0 -0 27.98 0 -0 0.00 25 -0 30.69 0 -0 30.69 0 -0 30.69 -12.74 0.85 1.40 25.06 -11.23 12.68 18.42 46.16 -96.22 -9.15 36.55 7.83 -22.22 0 -35.65 -34.40 0 8.56 34.45 0 0.00 0.00 0 0.00 -15.00 0 0.25 0.00 0 -12.76 0.00 0 -6.38 0.00 0 0.00 0.00 0 -15.41 0.00 0 -15.41 0.00 0 -15.41 0.00 0 0.00 15.00 0 -27.81 0.00 0 -27.81 0.00 0 -27.81 0.00 0 0.00 25.00 0 -17.74 0.00 0 -17.74 0.00 0 -17.74 
-217.73 91.67 77.32 96.87 1.65 -4.95 -14.08 -7.73 -3.28 -0.00 23.13 -0.00 -38.01 -7.36 14.32 -20.16 -19.94 15.56 -0.00 30.87 -0.00 1.53 -11.03 -10.19 -13.85 -1.91 3.15 -3.49 -0.37 0.73 -5.72 -0.44 1.22 0.66 2.84 -0.60 -3.05 46.94 -8.19 -3.95 36.44 -12.52 10.43 -1.18 -3.17 -7.79 -4.63 -20.05 -65.25 -11.8 64.28 -21.1 12.56 -1.13 -46.97 -0 25.80 16.6 -0 -4.03 -2.67 -0 0.00 0 -0 0.00 -15 -0 9.88 0 -0 12.85 0 -0 6.43 0 -0 0.00 0 -0 10.39 0 -0 10.39 0 -0 10.39 0 -0 0.00 15 -0 27.91 0 -0 27.91 0 -0 27.91 0 -0 0.00 25 -0 30.87 0 -0 30.87 0 -0 30.87 -12.84 0.84 1.41 24.87 -11.32 12.84 18.60 46.13 -96.48 -9.32 36.72 7.67 -22.26 0 -35.69 -34.48 0 8.53 34.43 0 0.00 0.00 0 0.00 -15.00 0 0.20 0.00 0 -12.79 0.00 0 -6.40 0.00 0 0.00 0.00 0 -15.53 0.00 0 -15.53 0.00 0 -15.53 0.00 0 0.00 15.00 0 -27.92 0.00 0 -27.92 0.00 0 -27.92 0.00 0 0.00 25.00 0 -17.79 0.00 0 -17.79 0.00 0 -17.79 
-217.73 91.67 77.33 96.87 1.68 -4.97 -14.05 -7.75 -3.25 0.00 23.15 0.00 -38.04 -7.37 14.32 -20.17 -19.97 15.60 0.00 30.90 -0.00 1.51 -11.05 -10.19 -13.87 -1.94 3.19 -3.50 -0.38 0.74 -5.73 -0.45 1.23 0.66 2.83 -0.60 -3.06 46.94 -8.21 -3.96 36.45 -12.55 10.36 -1.23 -3.17 -7.90 -4.61 -20.2 -64.78 -12.13 64.50 -21.21 12.23 -1.17 -46.87 -0 26.15 16.79 -0 -3.67 -3 -0 0.00 0 -0 0.00 -15 -0 9.77 0 -0 12.55 0 -0 6.28 0 -0 0.00 0 -0 9.95 0 -0 9.95 0 -0 9.95 0 -0 0.00 15 -0 27.94 0 -0 27.94 0 -0 27.94 0 -0 0.00 25 -0 30.81 0 -0 30.81 0 -0 30.81 -12.90 0.83 1.41 24.64 -11.41 13.01 18.62 46.13 -96.60 -9.50 36.86 7.56 -22.26 0 -35.73 -34.48 0 8.48 34.47 0 0.00 0.00 0 0.00 -15.00 0 0.15 0.00 0 -12.80 0.00 0 -6.40 0.00 0 0.00 0.00 0 -15.61 0.00 0 -15.61 0.00 0 -15.61 0.00 0 0.00 15.00 0 -28.02 0.00 0 -28.02 0.00 0 -28.02 0.00 0 0.00 25.00 0 -17.87 0.00 0 -17.87 0.00 0 -17.87 
-217.72 91.68 77.33 96.88 1.70 -4.99 -14.04 -7.75 -3.22 0.00 23.13 0.00 -38.06 -7.36 14.31 -20.16 -19.98 15.63 0.00 30.91 0.00 1.49 -11.06 -10.19 -13.92 -1.96 3.22 -3.51 -0.38 0.75 -5.74 -0.45 1.25 0.67 2.83 -0.60 -3.07 46.93 -8.24 -3.96 36.47 -12.59 10.31 -1.27 -3.18 -8.02 -4.61 -20.33 -64.39 -12.42 64.70 -21.28 11.97 -1.22 -46.8 -0 26.46 16.94 -0 -3.36 -3.28 -0 0.00 0 -0 0.00 -15 -0 9.80 0 -0 12.37 0 -0 6.18 0 -0 0.00 0 -0 10.08 0 -0 10.08 0 -0 10.08 0 -0 0.00 15 -0 27.99 0 -0 27.99 0 -0 27.99 0 -0 0.00 25 -0 30.77 0 -0 30.77 0 -0 30.77 -12.93 0.83 1.43 24.42 -11.52 13.17 18.65 46.15 -96.72 -9.70 36.98 7.50 -22.25 0 -35.78 -34.46 0 8.44 34.46 0 0.00 0.00 0 0.00 -15.00 0 0.04 0.00 0 -12.84 0.00 0 -6.42 0.00 0 0.00 0.00 0 -15.69 0.00 0 -15.69 0.00 0 -15.69 0.00 0 0.00 15.00 0 -28.11 0.00 0 -28.11 0.00 0 -28.11 0.00 0 0.00 25.00 0 -18.06 0.00 0 -18.06 0.00 0 -18.06 
